<svg width="150px" height="150px" id="logosandtypes_com" xmlns="http://www.w3.org/2000/svg"><path d="M0 .2h150v150H0V.2z" fill="none"/><g><linearGradient id="a" gradientUnits="userSpaceOnUse" x1="75.0887" y1="11.5735" x2="75.0887" y2="134.2654"><stop offset="0" stop-color="#88eafe"/><stop offset="1" stop-color="#51e6bd"/></linearGradient><path d="M138.7 127.8l-14.6-17.5c7.9-10.7 12.2-23.6 12.2-37.1 0-16.7-6.5-32.4-18.3-44.2S90.6 10.7 73.9 10.7 41.6 17.2 29.8 29C18 40.8 11.5 56.5 11.5 73.2c0 16.7 6.5 32.4 18.3 44.2s27.5 18.3 44.2 18.3c16 0 31.2-6 42.8-17l13.5 16.2 8.4-7.1zm-64.8-106c28.3 0 51.4 23.1 51.4 51.4 0 10.5-3.1 20.2-8.5 28.3L86.4 65c-4.1-4.9-9.8-7.9-16.1-8.6-6.3-.7-12.5 1.2-17.5 5.1l-3.2 2.6c-2.7 2.1-6 3.3-9.4 3.3H22.9c2.9-25.6 24.7-45.6 51-45.6zm0 102.8c-26.6 0-48.5-20.3-51.1-46.2h17.5c5.9 0 11.6-2 16.2-5.6l3.2-2.6c5.6-4.4 13.6-3.6 18.2 1.9l31.7 38.1c-9.2 8.9-21.8 14.4-35.7 14.4z" fill="url(#a)"/></g></svg>